# xmcd CD database file
#
# Track frame offsets:
#	150
#	24128
#	42545
#	64464
#	93577
#	137854
#	151725
#	178438
#	199425
#	220178
#	238250
#	256639
#
# Disc length: 3722 seconds
#
# Revision: 0
# Processed by: cddbd v1.5.1PL0 Copyright (c) Steve Scherf et al.
# Submitted via: CDex 1.51
#
DISCID=b20e880c
DTITLE=Warren Vache - Dream Dancing
DYEAR=1900
DGENRE=Jazz
TTITLE0=Close Your Eyes
TTITLE1=Too Late Now
TTITLE2=Quasimodo
TTITLE3=Lover, Come Back To Me
TTITLE4=Dream Dancing
TTITLE5=Blue Lou
TTITLE6=Some Other Time
TTITLE7=You're a Lucky Guy
TTITLE8=You're All The World To Me
TTITLE9=What's New?
TTITLE10=I'm Shooting High
TTITLE11=Not Exactly Paris
EXTD=
EXTT0=
EXTT1=
EXTT2=
EXTT3=
EXTT4=
EXTT5=
EXTT6=
EXTT7=
EXTT8=
EXTT9=
EXTT10=
EXTT11=
PLAYORDER=
